<?xml version="1.0" standalone="no"?>
<!DOCTYPE svg PUBLIC "-//W3C//DTD SVG 20010904//EN"
 "http://www.w3.org/TR/2001/REC-SVG-20010904/DTD/svg10.dtd">
<svg version="1.0" xmlns="http://www.w3.org/2000/svg"
 width="520.000000pt" height="726.000000pt" viewBox="0 0 520.000000 726.000000"
 preserveAspectRatio="xMidYMid meet">

<g transform="translate(0.000000,726.000000) scale(0.100000,-0.100000)"
fill="#FEF08A" stroke="none">
<path d="M2511 7058 c-82 -23 -138 -103 -128 -184 2 -24 3 -44 0 -44 -8 0 -98
64 -148 105 -107 89 -168 114 -238 101 -50 -9 -105 -58 -113 -101 l-6 -34 -40
20 c-58 29 -138 36 -191 15 -48 -18 -103 -70 -109 -101 -3 -19 -14 -20 -213
-27 -347 -11 -480 -32 -621 -99 -193 -91 -252 -264 -137 -399 65 -76 155 -99
239 -61 61 28 84 63 84 128 0 49 -4 59 -34 89 -48 48 -116 45 -99 -3 3 -7 11
-13 18 -13 17 0 45 -38 45 -62 0 -50 -88 -75 -150 -43 -62 32 -90 127 -57 192
49 94 224 166 469 192 54 6 290 11 525 11 631 -1 2283 -28 2393 -40 234 -24
401 -56 443 -84 128 -85 56 -339 -88 -312 -96 18 -91 135 6 155 25 5 34 12 34
26 0 16 -8 21 -38 23 -105 9 -176 -127 -114 -219 26 -40 98 -79 144 -79 73 0
154 56 196 135 17 31 22 58 22 120 0 70 -4 86 -28 127 -35 60 -81 95 -154 118
-106 33 -544 70 -835 70 l-138 0 0 26 c0 36 -57 91 -103 99 -32 6 -115 -13
-185 -42 -9 -3 -11 2 -7 20 4 16 -1 43 -14 71 -16 37 -29 51 -63 66 -86 39
-145 21 -269 -78 -43 -34 -80 -62 -83 -62 -3 0 -6 14 -6 30 0 63 -57 130 -128
150 -20 5 -39 10 -42 9 -3 0 -20 -5 -39 -11z m89 -63 c57 -30 75 -86 46 -144
-28 -53 -115 -69 -154 -28 -53 56 -48 132 12 168 37 23 58 24 96 4z m-505 -34
c22 -10 63 -38 90 -62 28 -25 65 -57 83 -72 l34 -27 -95 0 -94 0 0 40 c0 53
-33 90 -79 90 -63 0 -68 -55 -6 -62 19 -2 27 -9 27 -22 0 -47 -96 -31 -115 19
-15 41 -12 54 19 86 35 34 76 38 136 10z m987 -11 c47 -58 -11 -152 -81 -133
-33 9 -24 47 12 51 57 7 41 62 -18 62 -49 0 -79 -41 -72 -97 l5 -43 -106 0
-105 0 29 22 c16 12 60 49 98 81 38 33 83 66 100 73 44 20 116 12 138 -16z
m-1258 -84 c95 -57 97 -55 -76 -56 -87 0 -158 4 -158 8 0 13 53 60 80 71 36
15 107 5 154 -23z m1558 -33 c10 -9 18 -24 18 -35 0 -20 -35 -22 -175 -9 l-69
6 64 27 c75 31 135 35 162 11z"/>
<path d="M2522 6954 c-41 -28 -22 -94 28 -94 55 0 78 52 40 90 -24 24 -38 25
-68 4z"/>
<path d="M231 7048 l-22 -8 3 -339 c2 -187 6 -343 11 -347 4 -4 13 -2 19 4 9
9 13 100 16 326 l4 314 152 6 c83 4 223 5 311 4 158 -2 245 6 245 22 0 5 -19
12 -42 15 -68 10 -672 13 -697 3z"/>
<path d="M4332 7049 c-79 -6 -102 -12 -90 -24 13 -13 191 -25 289 -19 58 4
175 3 261 -1 l155 -7 6 -306 c5 -293 9 -342 27 -342 15 0 20 75 22 377 2 237
0 305 -10 315 -10 10 -76 13 -295 13 -155 0 -319 -3 -365 -6z"/>
<path d="M340 6950 l-25 -6 0 -304 c0 -168 4 -314 8 -325 20 -47 28 26 34 302
l6 289 291 2 c291 3 356 7 356 23 0 4 -19 10 -42 13 -63 8 -599 13 -628 6z"/>
<path d="M4480 6950 c-151 -3 -276 -7 -277 -8 -2 -1 -3 -6 -3 -11 0 -16 62
-20 360 -23 l295 -3 3 -280 c3 -279 6 -315 22 -315 16 0 20 55 22 337 2 216 0
285 -10 295 -15 15 -71 17 -412 8z"/>
<path d="M1282 6898 c-17 -17 -15 -53 3 -68 20 -17 62 -5 70 21 13 40 -44 76
-73 47z"/>
<path d="M1436 6894 c-19 -18 -20 -28 -6 -55 12 -21 50 -25 68 -7 18 18 14 56
-7 68 -27 14 -37 13 -55 -6z"/>
<path d="M3510 6861 c-15 -29 3 -61 34 -61 30 0 48 22 44 52 -4 32 -62 39 -78
9z"/>
<path d="M3667 6873 c-11 -11 -8 -48 5 -61 34 -34 90 6 68 48 -10 20 -58 28
-73 13z"/>
<path d="M648 6549 c-21 -12 -24 -69 -6 -87 17 -17 64 -15 82 4 48 47 -17 118
-76 83z"/>
<path d="M4420 6525 c-31 -38 27 -96 65 -65 18 15 20 51 3 68 -17 17 -53 15
-68 -3z"/>
<path d="M572 6134 c-33 -23 -45 -60 -32 -100 23 -69 99 -86 151 -35 41 41 37
102 -10 138 -23 18 -83 16 -109 -3z"/>
<path d="M4527 6139 c-11 -6 -25 -26 -33 -45 -12 -29 -12 -39 0 -68 26 -64 97
-76 147 -27 58 59 23 151 -58 151 -21 0 -46 -5 -56 -11z"/>
<path d="M565 5880 c-46 -14 -113 -76 -140 -131 -47 -92 -49 -120 -34 -584 13
-442 12 -573 -22 -1930 -13 -504 -3 -854 32 -1163 30 -267 54 -340 130 -405
154 -132 399 -59 399 120 0 83 -55 146 -128 146 -49 0 -78 -16 -102 -56 -37
-60 -20 -123 32 -115 19 2 24 11 28 43 4 34 9 40 32 43 18 2 31 -4 42 -20 24
-34 19 -65 -16 -103 -87 -92 -237 -57 -296 69 -46 96 -92 511 -92 824 l0 132
28 0 c15 0 42 9 60 20 58 36 67 98 27 195 -14 33 -25 60 -25 61 0 0 20 1 44 1
81 0 136 60 136 148 0 66 -24 114 -100 205 l-63 75 46 7 c60 8 100 37 126 91
26 53 26 90 2 143 -32 70 -108 112 -182 100 l-40 -6 15 28 c8 16 49 72 91 125
83 105 105 148 105 202 0 73 -61 155 -116 155 l-24 0 21 41 c26 53 35 135 19
183 -16 51 -63 102 -105 116 -34 11 -35 13 -35 63 0 29 -5 239 -11 468 -11
381 -10 420 5 473 31 106 91 169 171 181 81 12 154 -58 134 -128 -11 -41 -43
-67 -80 -67 -19 0 -32 6 -36 18 -12 33 -25 43 -39 31 -35 -29 -4 -93 52 -108
50 -14 100 5 138 52 27 34 31 47 31 100 0 74 -24 114 -82 143 -44 20 -134 28
-178 14z m-47 -1325 c58 -65 52 -134 -21 -245 -41 -63 -42 -64 -45 -35 -2 17
-1 94 3 173 8 158 12 166 63 107z m75 -316 c46 -21 61 -93 31 -152 -9 -18 -33
-52 -53 -77 -21 -25 -59 -72 -86 -105 -47 -58 -48 -59 -42 -26 4 18 7 71 7
117 0 83 0 83 23 75 35 -14 75 -2 102 31 27 32 26 59 -1 87 -18 19 -42 0 -46
-37 -4 -36 -41 -38 -46 -3 -6 39 7 70 36 85 33 18 44 19 75 5z m17 -524 c34
-17 60 -62 60 -101 0 -39 -59 -94 -101 -94 -59 0 -129 61 -129 113 0 27 92 97
128 97 7 0 26 -7 42 -15z m-105 -317 c116 -137 128 -156 133 -215 4 -46 1 -57
-18 -78 -33 -35 -83 -34 -116 2 -32 34 -30 86 3 91 17 3 23 -3 28 -28 8 -38
33 -50 51 -25 22 30 16 61 -17 89 -38 32 -84 34 -116 4 l-23 -21 0 126 c0 70
3 127 8 126 4 0 34 -32 67 -71z m5 -511 c15 -51 -6 -87 -50 -87 l-30 0 0 128
1 127 34 -65 c19 -36 39 -82 45 -103z"/>
<path d="M537 3662 c-22 -24 -21 -55 1 -75 23 -21 41 -21 70 -1 27 18 29 55 4
77 -24 22 -55 21 -75 -1z"/>
<path d="M4485 5848 c-108 -38 -154 -142 -105 -239 40 -78 130 -103 189 -53
31 26 39 56 22 83 -13 20 -39 7 -43 -21 -5 -34 -47 -36 -85 -4 -98 83 16 214
144 165 45 -16 91 -68 116 -128 22 -55 22 -64 25 -548 l3 -493 -25 0 c-13 0
-39 -12 -57 -27 -67 -57 -86 -157 -49 -254 21 -56 19 -69 -10 -69 -29 0 -77
-53 -90 -100 -21 -79 3 -136 105 -255 52 -60 105 -133 105 -144 0 -3 -23 -4
-51 -3 -63 5 -100 -10 -143 -58 -88 -98 -31 -251 102 -277 l44 -8 -57 -69
c-75 -92 -98 -139 -98 -201 0 -97 59 -159 143 -152 l45 4 -24 -51 c-17 -36
-25 -69 -25 -109 -1 -53 2 -61 30 -86 18 -17 48 -31 74 -35 l43 -7 -7 -222
c-8 -233 -29 -512 -46 -609 -31 -167 -93 -238 -210 -238 -58 0 -99 18 -129 56
-40 51 -20 119 34 112 27 -3 31 -8 35 -43 4 -34 9 -40 32 -43 52 -6 62 74 18
131 -25 31 -80 51 -119 42 -40 -9 -89 -60 -101 -106 -22 -80 18 -157 104 -202
32 -16 58 -21 116 -20 90 0 135 18 190 74 67 69 94 174 122 474 21 221 15 988
-10 1550 -31 660 -43 1223 -34 1545 9 322 3 408 -33 485 -58 122 -185 189
-290 153z m265 -1366 c0 -44 3 -121 6 -173 l5 -94 -26 30 c-39 45 -85 144 -85
182 0 19 7 47 15 63 15 28 60 70 76 70 5 0 9 -35 9 -78z m-49 -285 c43 -33 49
-107 9 -107 -15 0 -22 9 -27 31 -7 35 -26 47 -48 29 -17 -14 -20 -53 -5 -79
13 -26 65 -45 100 -38 37 8 42 -7 38 -120 l-3 -83 -50 61 c-27 33 -67 81 -87
105 -63 75 -73 149 -28 194 23 23 76 26 101 7z m31 -540 c36 -28 43 -39 41
-66 -1 -40 -42 -86 -89 -101 -64 -21 -134 34 -134 106 0 16 12 38 34 60 46 46
89 46 148 1z m61 -349 c5 -124 4 -127 -13 -106 -40 50 -150 13 -150 -51 1 -60
48 -70 62 -13 10 36 43 45 53 13 16 -51 -25 -105 -81 -105 -50 0 -79 33 -78
87 1 60 24 100 114 207 44 51 80 98 81 104 2 36 8 -26 12 -136z m16 -482 l1
-68 -32 6 c-43 8 -70 40 -62 75 3 14 22 62 43 106 l36 79 6 -64 c4 -36 7 -96
8 -134z"/>
<path d="M4610 3630 c-11 -11 -20 -28 -20 -38 0 -46 79 -71 100 -33 16 31 12
59 -12 75 -30 21 -44 20 -68 -4z"/>
<path d="M492 4898 c-19 -19 -14 -56 8 -68 38 -21 80 22 60 61 -12 21 -50 25
-68 7z"/>
<path d="M4650 4866 c-28 -35 11 -93 48 -70 35 22 22 84 -18 84 -10 0 -23 -7
-30 -14z"/>
<path d="M492 4748 c-17 -17 -15 -53 3 -68 20 -17 62 -5 70 21 13 40 -44 76
-73 47z"/>
<path d="M4644 4706 c-3 -8 -4 -25 -2 -38 2 -18 10 -24 35 -26 39 -4 60 25 43
58 -13 24 -68 28 -76 6z"/>
<path d="M492 2673 c-41 -16 -32 -83 11 -83 29 0 47 18 47 47 0 18 -28 46 -42
42 -2 0 -9 -3 -16 -6z"/>
<path d="M4690 2621 c-20 -39 22 -82 60 -61 22 12 27 49 8 68 -18 18 -56 14
-68 -7z"/>
<path d="M470 2501 c-20 -39 22 -82 60 -61 22 12 27 49 8 68 -18 18 -56 14
-68 -7z"/>
<path d="M4700 2476 c-28 -35 11 -93 48 -70 35 22 22 84 -18 84 -10 0 -23 -7
-30 -14z"/>
<path d="M578 1455 c-32 -18 -52 -72 -39 -106 21 -55 80 -80 130 -55 59 31 70
99 22 147 -33 32 -70 37 -113 14z"/>
<path d="M4529 1455 c-15 -8 -32 -28 -37 -44 -28 -81 53 -155 127 -117 60 31
70 99 22 147 -33 32 -70 37 -112 14z"/>
<path d="M645 1116 c-37 -16 -102 -87 -120 -130 -60 -144 13 -307 157 -351 89
-27 357 -54 676 -67 242 -9 302 -14 302 -25 0 -28 31 -73 60 -88 40 -21 120
-19 180 5 28 11 52 20 54 20 2 0 6 -23 8 -52 4 -42 11 -57 36 -79 80 -71 170
-57 299 46 45 36 84 65 87 65 3 0 6 -11 6 -25 0 -38 35 -100 71 -126 50 -35
127 -38 181 -6 61 36 92 93 86 162 l-4 53 45 -29 c25 -16 82 -58 126 -94 97
-80 158 -102 229 -84 49 12 106 65 106 98 0 29 9 30 53 8 29 -15 62 -21 107
-22 84 0 150 35 176 94 l17 38 201 7 c426 15 612 57 734 170 58 53 81 105 82
179 0 66 -15 107 -55 155 -81 96 -238 97 -302 2 -45 -66 -18 -167 51 -190 60
-20 90 12 40 44 -53 36 -47 97 12 116 46 15 94 -1 133 -45 57 -65 52 -134 -13
-200 -83 -82 -244 -135 -481 -156 -143 -12 -428 -11 -2060 11 -696 10 -850 18
-1085 60 -190 34 -234 69 -235 185 0 130 90 209 184 160 47 -24 54 -68 18
-111 -14 -16 -33 -26 -50 -26 -31 0 -52 -21 -43 -43 7 -20 59 -19 102 1 72 35
99 135 55 207 -40 66 -150 96 -226 63z m1279 -580 c-113 -52 -182 -57 -204
-16 -20 38 -14 40 123 39 l132 0 -51 -23z m440 -8 c-16 -13 -58 -47 -93 -77
-113 -95 -194 -113 -241 -54 -28 36 -25 69 9 104 32 32 71 38 91 14 17 -20 -3
-45 -37 -45 -31 0 -42 -29 -18 -46 29 -21 63 -17 91 12 22 21 25 32 22 70 l-3
44 104 0 104 0 -29 -22z m266 -20 c16 -22 30 -51 30 -64 0 -91 -106 -140 -171
-78 -56 53 -45 134 23 167 56 28 84 22 118 -25z m370 -8 c0 -30 7 -47 25 -65
27 -28 76 -33 95 -10 17 21 5 45 -23 45 -14 0 -31 7 -38 16 -11 14 -10 18 6
30 29 21 54 17 86 -15 58 -58 21 -137 -64 -135 -62 1 -108 30 -261 166 -6 4
31 8 82 8 l92 0 0 -40z m519 24 c3 -2 -8 -18 -24 -34 -39 -41 -83 -52 -144
-36 -43 11 -151 70 -151 83 0 5 313 -8 319 -13z"/>
<path d="M2534 482 c-6 -4 -16 -17 -23 -30 -25 -48 48 -99 87 -60 39 39 -19
120 -64 90z"/>
<path d="M316 894 c-3 -26 -6 -170 -6 -320 l0 -274 24 -6 c44 -11 639 0 660
12 15 9 16 13 5 20 -8 5 -155 10 -326 12 l-313 4 -1 181 c-2 252 -12 410 -25
414 -7 2 -14 -16 -18 -43z"/>
<path d="M4866 913 c-3 -16 -6 -150 -8 -300 l-3 -271 -315 -4 c-173 -1 -321
-7 -329 -12 -11 -7 -10 -11 5 -20 25 -14 653 -21 674 -7 12 9 14 52 12 293 -3
281 -7 348 -22 348 -5 0 -11 -12 -14 -27z"/>
<path d="M224 888 c-5 -7 -10 -165 -12 -350 l-3 -337 24 -6 c36 -9 699 -1 720
9 61 29 -17 36 -383 36 l-307 0 -5 320 c-4 310 -10 366 -34 328z"/>
<path d="M4403 890 c-40 -16 -42 -79 -1 -101 44 -24 96 17 84 65 -4 17 -46 49
-59 45 -1 0 -12 -4 -24 -9z"/>
<path d="M4965 883 c-4 -10 -9 -158 -12 -330 l-6 -312 -341 -3 c-188 -2 -347
-7 -355 -12 -11 -7 -10 -11 5 -20 27 -16 722 -22 738 -6 11 12 12 586 0 663
-6 40 -18 48 -29 20z"/>
<path d="M618 865 c-9 -21 -8 -28 7 -45 31 -34 75 -20 75 25 0 48 -62 63 -82
20z"/>
<path d="M1388 539 c-21 -12 -24 -49 -6 -67 18 -18 56 -14 68 7 12 24 4 48
-21 61 -21 12 -20 12 -41 -1z"/>
<path d="M1537 532 c-30 -33 -15 -72 28 -72 42 0 59 44 29 74 -20 21 -37 20
-57 -2z"/>
<path d="M3608 494 c-11 -23 -10 -29 10 -45 28 -22 66 -12 70 20 8 52 -59 72
-80 25z"/>
<path d="M3772 508 c-19 -19 -14 -56 8 -68 38 -21 80 22 60 61 -12 21 -50 25
-68 7z"/>
</g>
</svg>
