<?xml version="1.0" standalone="no"?>
<!DOCTYPE svg PUBLIC "-//W3C//DTD SVG 20010904//EN"
 "http://www.w3.org/TR/2001/REC-SVG-20010904/DTD/svg10.dtd">
<svg version="1.0" xmlns="http://www.w3.org/2000/svg"
 width="625.000000pt" height="527.000000pt" viewBox="0 0 625.000000 527.000000"
 preserveAspectRatio="xMidYMid meet">

<g transform="translate(0.000000,527.000000) scale(0.100000,-0.100000)"
fill="#000000" stroke="none">
<path d="M3010 5095 c-137 -27 -340 -122 -1360 -632 -1156 -578 -1272 -642
-1357 -757 -55 -74 -98 -164 -118 -249 -19 -80 -19 -225 1 -307 17 -74 86
-210 140 -275 l37 -45 -27 -38 c-14 -20 -42 -59 -61 -87 -80 -113 -123 -290
-104 -435 16 -133 63 -239 152 -350 l44 -54 -48 -58 c-94 -113 -159 -292 -159
-435 1 -223 158 -469 365 -568 77 -37 184 -62 1010 -239 1618 -346 1856 -396
1909 -396 23 0 69 15 120 38 188 89 1967 1040 2361 1263 101 57 124 74 144
109 45 81 14 178 -72 219 -67 33 -104 27 -220 -30 -113 -57 -670 -351 -1482
-784 -291 -155 -608 -322 -702 -371 l-173 -89 -87 18 c-141 29 -2249 484
-2467 532 -115 26 -212 53 -232 65 -59 37 -123 117 -140 178 -38 130 39 297
162 348 84 35 157 23 1309 -227 1095 -238 1437 -309 1487 -309 41 0 193 74
618 300 179 95 541 287 805 428 571 303 1018 546 1105 599 86 53 105 80 105
152 -1 67 -28 119 -79 150 -83 52 -65 60 -1431 -669 -440 -235 -876 -468 -969
-519 -93 -50 -179 -91 -190 -91 -22 0 -1428 300 -2226 475 -341 75 -490 112
-528 131 -87 44 -142 130 -150 234 -5 80 8 134 51 196 38 57 92 96 164 117 66
20 -10 35 1573 -303 881 -188 1134 -240 1164 -240 34 0 184 76 926 470 1522
807 1648 876 1677 919 33 49 39 110 15 163 -27 61 -71 91 -141 96 -53 4 -63 0
-196 -68 -197 -102 -506 -266 -1470 -781 -463 -247 -850 -449 -860 -449 -21 0
-1382 293 -2210 476 -555 123 -575 129 -634 201 -123 149 -90 337 79 449 83
55 123 51 655 -65 815 -179 1961 -421 1992 -421 40 0 92 26 1133 568 1445 752
1509 786 1532 837 16 35 2 71 -35 94 -40 25 -390 100 -1447 311 -1007 202
-1114 220 -1273 219 -67 0 -151 -7 -187 -14z"/>
</g>
</svg>
