<?xml version="1.0" standalone="no"?>
<!DOCTYPE svg PUBLIC "-//W3C//DTD SVG 20010904//EN"
 "http://www.w3.org/TR/2001/REC-SVG-20010904/DTD/svg10.dtd">
<svg version="1.0" xmlns="http://www.w3.org/2000/svg"
 width="700.000000pt" height="700.000000pt" viewBox="0 0 700.000000 700.000000"
 preserveAspectRatio="xMidYMid meet">

<g transform="translate(0.000000,700.000000) scale(0.100000,-0.100000)"
fill="#000000" stroke="none">
<path d="M3370 5130 c-106 -18 -243 -82 -1050 -485 -864 -432 -938 -473 -1002
-557 -102 -134 -132 -316 -76 -466 22 -61 75 -147 107 -176 19 -18 19 -19 -22
-69 -148 -182 -151 -436 -8 -614 l48 -59 -39 -45 c-72 -82 -118 -208 -118
-322 0 -194 143 -393 325 -451 49 -15 382 -88 1295 -282 768 -164 820 -174
850 -174 16 0 71 22 122 49 855 449 1798 958 1820 981 86 93 13 224 -117 210
-18 -2 -372 -188 -1494 -787 -189 -100 -351 -183 -359 -183 -8 0 -213 43 -456
96 -242 52 -691 149 -996 215 -305 66 -572 124 -593 130 -48 13 -115 72 -138
124 -41 90 -6 211 78 269 81 56 56 60 1124 -173 531 -116 984 -211 1005 -211
31 0 92 28 289 133 138 73 566 301 952 506 489 260 708 381 719 399 40 61 22
147 -40 187 -60 40 -45 47 -966 -445 -476 -254 -889 -475 -917 -491 l-53 -29
-1002 215 c-552 118 -1021 222 -1044 230 -180 67 -193 324 -21 410 28 14 66
25 84 25 19 0 474 -95 1011 -210 538 -116 989 -210 1002 -210 22 0 133 57 715
367 83 43 382 202 665 353 283 150 529 284 547 297 40 29 57 83 43 134 -19 69
-90 106 -161 85 -32 -10 -383 -196 -1517 -803 l-324 -173 -1016 220 c-560 121
-1030 226 -1046 232 -71 29 -136 123 -136 199 0 117 105 229 216 229 22 0 267
-50 464 -95 63 -14 347 -75 630 -136 283 -60 578 -123 655 -140 115 -26 145
-30 170 -20 29 10 1605 830 1834 954 62 33 120 71 128 84 24 37 9 71 -40 93
-23 10 -461 102 -972 204 -857 171 -939 186 -1030 185 -55 -1 -120 -5 -145 -9z"/>
</g>
</svg>
