<?xml version="1.0" encoding="utf-8"?>
<!-- Generator: Adobe Illustrator 21.0.0, SVG Export Plug-In . SVG Version: 6.00 Build 0)  -->
<svg version="1.1" id="Layer_1" xmlns="http://www.w3.org/2000/svg" xmlns:xlink="http://www.w3.org/1999/xlink" x="0px" y="0px"
	 viewBox="0 0 512 512" style="enable-background:new 0 0 512 512;" xml:space="preserve">
<g>
	<path d="M493.7,55.3H363c-28.1,0-55.5,8.1-79.1,23.3L256,96.4l-27.9-17.9c-23.6-15.2-51-23.3-79.1-23.3H18.3
		C8.2,55.3,0,63.4,0,73.5v324.6c0,10.1,8.2,18.3,18.3,18.3H149c28.1,0,55.5,8.1,79.1,23.3l25.4,16.3c0.7,0.5,1.6,0.7,2.5,0.7
		c0.9,0,1.7-0.2,2.5-0.7l25.4-16.3c23.7-15.2,51.1-23.3,79.2-23.3h130.7c10.1,0,18.3-8.2,18.3-18.3V73.5
		C512,63.4,503.8,55.3,493.7,55.3z M149,375.3H41.1V96.4H149c20.2,0,39.9,5.8,56.9,16.7l27.9,17.9l3.9,2.6v264
		C210.5,382.9,180.1,375.3,149,375.3z M470.9,375.3H363c-31.1,0-61.5,7.7-88.7,22.3v-264l3.9-2.6l27.9-17.9
		c17-10.9,36.6-16.7,56.9-16.7h107.9V375.3z M190.2,169.5H84.1c-2.2,0-4.1,1.9-4.1,4.3v25.7c0,2.3,1.8,4.3,4.1,4.3h106.1
		c2.2,0,4.1-1.9,4.1-4.3v-25.7C194.3,171.5,192.5,169.5,190.2,169.5z M317.7,173.8v25.7c0,2.3,1.8,4.3,4.1,4.3h106.1
		c2.2,0,4.1-1.9,4.1-4.3v-25.7c0-2.3-1.8-4.3-4.1-4.3H321.8C319.5,169.5,317.7,171.5,317.7,173.8z M190.2,249.5H84.1
		c-2.2,0-4.1,1.9-4.1,4.3v25.7c0,2.3,1.8,4.3,4.1,4.3h106.1c2.2,0,4.1-1.9,4.1-4.3v-25.7C194.3,251.5,192.5,249.5,190.2,249.5z
		 M427.9,249.5H321.8c-2.2,0-4.1,1.9-4.1,4.3v25.7c0,2.3,1.8,4.3,4.1,4.3h106.1c2.2,0,4.1-1.9,4.1-4.3v-25.7
		C432,251.5,430.2,249.5,427.9,249.5z"/>
</g>
</svg>
